<svg width="15" height="15" viewBox="0 0 15 15" fill="none" xmlns="http://www.w3.org/2000/svg">
<path d="M10.0722 0.533919L3.37596 2.7586C-1.12532 4.26397 -1.12532 6.71856 3.37596 8.21651L5.36334 8.8765L6.0233 10.8639C7.52125 15.3652 9.98323 15.3652 11.4812 10.8639L13.7133 4.17498C15 0.239888 13.7133 -0.760254 10.0722 0.533919ZM10.3095 4.52352L7.49159 7.3563C7.38036 7.46754 7.23946 7.51944 7.09856 7.51944C6.95767 7.51944 6.81677 7.46754 6.70554 7.3563C6.49048 7.14125 6.49048 6.7853 6.70554 6.57025L9.52347 3.73746C9.73852 3.52241 10.0945 3.52241 10.3095 3.73746C10.5246 3.95252 10.5246 4.30846 10.3095 4.52352Z" fill="white"/>
</svg>
