<svg width="14" height="14" viewBox="0 0 14 14" fill="none" xmlns="http://www.w3.org/2000/svg">
<g clip-path="url(#clip0_2006_4)">
<mask id="mask0_2006_4" style="mask-type:luminance" maskUnits="userSpaceOnUse" x="0" y="0" width="14" height="14">
<path d="M14 0H0V14H14V0Z" fill="white"/>
</mask>
<g mask="url(#mask0_2006_4)">
<path d="M6.125 0L5.25 2.0825C5.075 2.135 4.9175 2.2225 4.76 2.31L2.6775 1.435L1.4175 2.695L2.2925 4.7775C2.205 4.9525 2.135 5.0925 2.065 5.2675L-0.0175018 6.1425V7.8925L2.065 8.7675C2.135 8.9425 2.205 9.0825 2.2925 9.2575L1.4175 11.34L2.6775 12.6L4.76 11.725C4.9175 11.795 5.075 11.8825 5.25 11.9525L6.125 14.035H7.875L8.75 11.9525C8.9075 11.8825 9.0825 11.8125 9.24 11.725L11.3225 12.6L12.5825 11.34L11.7075 9.2575C11.7775 9.1 11.865 8.925 11.935 8.7675L14.0175 7.8925V6.1425L11.935 5.2675C11.8825 5.11 11.795 4.935 11.7075 4.7775L12.5825 2.695L11.3225 1.435L9.24 2.31C9.0825 2.24 8.9075 2.1525 8.75 2.0825L7.875 0H6.125ZM7 4.375C8.4525 4.375 9.625 5.5475 9.625 7C9.625 8.4525 8.4525 9.625 7 9.625C5.5475 9.625 4.375 8.4525 4.375 7C4.375 5.5475 5.5475 4.375 7 4.375Z" fill="#BA67FF"/>
</g>
</g>
<defs>
<clipPath id="clip0_2006_4">
<rect width="14" height="14" fill="white"/>
</clipPath>
</defs>
</svg>
