<svg width="1180" height="202" viewBox="0 0 1180 202" fill="none" xmlns="http://www.w3.org/2000/svg">
  <defs>
    <linearGradient id="bg" x1="0" y1="0" x2="1044" y2="253" gradientUnits="userSpaceOnUse">
      <stop stop-color="#15161d"/>
      <stop offset="1" stop-color="#0f1014"/>
    </linearGradient>
    <radialGradient id="glowA" cx="0" cy="0" r="1" gradientUnits="userSpaceOnUse" gradientTransform="translate(830 18) rotate(130) scale(250 170)">
      <stop stop-color="#ffffff" stop-opacity="0.22"/>
      <stop offset="1" stop-color="#ffffff" stop-opacity="0"/>
    </radialGradient>
    <radialGradient id="glowB" cx="0" cy="0" r="1" gradientUnits="userSpaceOnUse" gradientTransform="translate(280 0) rotate(72) scale(210 150)">
      <stop stop-color="#ff3a3a" stop-opacity="0.22"/>
      <stop offset="1" stop-color="#ff3a3a" stop-opacity="0"/>
    </radialGradient>
    <linearGradient id="beam" x1="91" y1="26" x2="587" y2="220" gradientUnits="userSpaceOnUse">
      <stop stop-color="#ffffff" stop-opacity="0.12"/>
      <stop offset="1" stop-color="#ffffff" stop-opacity="0"/>
    </linearGradient>
  </defs>

  <rect width="1180" height="202" rx="0" fill="url(#bg)"/>
  <rect x="0" y="0" width="1180" height="202" fill="url(#glowA)"/>
  <rect x="0" y="0" width="1180" height="202" fill="url(#glowB)"/>

  <path d="M1057 0L1180 0V202H862C944 176 1001 132 1025 64C1032 44 1046 20 1057 0Z" fill="#FFFFFF" fill-opacity="0.08"/>
  <path d="M230 202H0V108C71 149 143 176 230 202Z" fill="#FF3A3A" fill-opacity="0.08"/>
  <path d="M80 20C159 42 227 77 295 132C316 149 343 170 384 202H246C177 169 102 121 35 60C19 46 5 33 0 20H80Z" fill="url(#beam)"/>

  <g opacity="0.17">
    <circle cx="1010" cy="77" r="1.3" fill="white"/>
    <circle cx="1044" cy="50" r="1.3" fill="white"/>
    <circle cx="1075" cy="72" r="1.3" fill="white"/>
    <circle cx="1110" cy="44" r="1.3" fill="white"/>
    <circle cx="1141" cy="66" r="1.3" fill="white"/>
  </g>
</svg>