<svg width="12" height="12" viewBox="0 0 12 12" fill="none" xmlns="http://www.w3.org/2000/svg">
<path fill-rule="evenodd" clip-rule="evenodd" d="M6.97728 11.0831L6.65202 11.6327C6.3621 12.1224 5.6379 12.1224 5.34798 11.6327L5.02272 11.0831C4.77044 10.6569 4.64429 10.4438 4.44167 10.3259C4.23905 10.2081 3.98395 10.2037 3.47375 10.1949C2.72053 10.1819 2.24813 10.1358 1.85195 9.97168C1.11686 9.66718 0.532842 9.08319 0.22836 8.34807C0 7.79679 0 7.09785 0 5.70002V5.10002C0 3.13595 0 2.15392 0.44208 1.43251C0.689448 1.02884 1.02884 0.689451 1.43251 0.442082C2.15391 0 3.13594 0 5.1 0H6.9C8.86404 0 9.84606 0 10.5675 0.442082C10.9712 0.689451 11.3105 1.02884 11.5579 1.43251C12 2.15392 12 3.13595 12 5.10001V5.70002C12 7.09785 12 7.79679 11.7716 8.34807C11.4671 9.08319 10.8832 9.66718 10.148 9.97168C9.75186 10.1358 9.27948 10.1819 8.52624 10.1949C8.016 10.2037 7.76094 10.2081 7.55832 10.3259C7.3557 10.4438 7.22952 10.6569 6.97728 11.0831ZM3.15 4.20002C3.15 3.95149 3.35147 3.75001 3.6 3.75001H8.4C8.64852 3.75001 8.85 3.95149 8.85 4.20002C8.85 4.44854 8.64852 4.65002 8.4 4.65002H3.6C3.35147 4.65002 3.15 4.44854 3.15 4.20002ZM3.6 5.85002C3.35147 5.85002 3.15 6.0515 3.15 6.30002C3.15 6.54854 3.35147 6.75003 3.6 6.75003H6.9C7.14852 6.75003 7.35 6.54854 7.35 6.30002C7.35 6.0515 7.14852 5.85002 6.9 5.85002H3.6Z" fill="#00FFAE"/>
</svg>
