<svg width="13" height="13" viewBox="0 0 13 13" fill="none" xmlns="http://www.w3.org/2000/svg">
<path d="M9.05731 0.911722L3.47889 2.76562C-0.270959 4.0201 -0.270959 6.06559 3.47889 7.31388L5.13451 7.86387L5.6843 9.52003C6.93219 13.2711 8.98318 13.2711 10.2311 9.52003L12.0906 3.94594C12.9184 1.44317 11.5593 0.0774655 9.05731 0.911722ZM9.255 4.23639L6.90748 6.59704C6.81481 6.68974 6.69744 6.73299 6.58006 6.73299C6.46269 6.73299 6.34531 6.68974 6.25265 6.59704C6.07349 6.41783 6.07349 6.12121 6.25265 5.942L8.60016 3.58134C8.77931 3.40213 9.07584 3.40213 9.255 3.58134C9.43415 3.76055 9.43415 4.05718 9.255 4.23639Z" fill="#00FFAE"/>
</svg>
