<svg width="12" height="12" viewBox="0 0 12 12" fill="none" xmlns="http://www.w3.org/2000/svg">
<path fill-rule="evenodd" clip-rule="evenodd" d="M7.12344 0.091344C6.88957 2.68221e-08 6.59304 0 5.99999 0C5.40694 0 5.11041 2.68221e-08 4.87654 0.091344C4.56467 0.213138 4.31689 0.446748 4.18772 0.740778C4.12875 0.875004 4.10567 1.0311 4.09664 1.25879C4.08337 1.59341 3.90136 1.90313 3.59379 2.07056C3.28621 2.23798 2.91072 2.23172 2.59673 2.07526C2.38306 1.96878 2.22814 1.90957 2.07536 1.89061C1.74069 1.84907 1.40222 1.93457 1.13441 2.12832C0.93356 2.27363 0.785297 2.51574 0.488777 2.99996C0.192257 3.48418 0.0440006 3.72629 0.0109564 3.96295C-0.0331088 4.27848 0.0575858 4.5976 0.263083 4.8501C0.356878 4.96536 0.488695 5.0622 0.693282 5.1834C0.994046 5.3616 1.18757 5.66514 1.18755 6C1.18753 6.33486 0.994015 6.63834 0.693282 6.81648C0.488663 6.93774 0.356821 7.03464 0.263019 7.1499C0.0575227 7.40238 -0.0331656 7.72146 0.0108934 8.037C0.0439375 8.27364 0.1922 8.5158 0.488714 9C0.785233 9.4842 0.933497 9.72636 1.13435 9.87162C1.40215 10.0654 1.74062 10.1509 2.0753 10.1093C2.22807 10.0904 2.38298 10.0312 2.59663 9.92472C2.91064 9.76824 3.28616 9.762 3.59375 9.9294C3.90135 10.0969 4.08336 10.4066 4.09664 10.7413C4.10567 10.9689 4.12875 11.125 4.18772 11.2592C4.31689 11.5532 4.56467 11.7869 4.87654 11.9087C5.11041 12 5.40694 12 5.99999 12C6.59304 12 6.88957 12 7.12344 11.9087C7.43532 11.7869 7.68309 11.5532 7.81224 11.2592C7.87123 11.125 7.89435 10.9689 7.90338 10.7412C7.91664 10.4066 8.0986 10.0969 8.40618 9.9294C8.71376 9.76194 9.08929 9.76824 9.40332 9.92472C9.61698 10.0312 9.77184 10.0903 9.92462 10.1093C10.2593 10.1509 10.5978 10.0654 10.8655 9.87162C11.0665 9.7263 11.2147 9.4842 11.5112 8.99994C11.8077 8.51574 11.956 8.27364 11.9891 8.037C12.0331 7.72146 11.9424 7.40232 11.7369 7.14984C11.6431 7.03458 11.5113 6.93768 11.3066 6.81648C11.0059 6.63834 10.8124 6.3348 10.8124 5.99994C10.8124 5.66508 11.0059 5.36166 11.3066 5.18352C11.5113 5.06226 11.6431 4.96542 11.737 4.8501C11.9424 4.59764 12.0331 4.27852 11.9891 3.96298C11.956 3.72633 11.8078 3.48422 11.5113 3C11.2147 2.51578 11.0665 2.27367 10.8656 2.12836C10.5978 1.93462 10.2594 1.84911 9.92468 1.89065C9.7719 1.90961 9.61698 1.96882 9.40338 2.07528C9.08936 2.23175 8.71382 2.23801 8.40624 2.07058C8.09866 1.90315 7.91664 1.5934 7.90332 1.25876C7.89429 1.03109 7.87123 0.874998 7.81224 0.740778C7.68309 0.446748 7.43532 0.213138 7.12344 0.091344ZM5.99999 7.8C7.05441 7.8 7.90913 6.99414 7.90913 6C7.90913 5.00586 7.05441 4.2 5.99999 4.2C4.94557 4.2 4.09083 5.00586 4.09083 6C4.09083 6.99414 4.94557 7.8 5.99999 7.8Z" fill="white"/>
</svg>
