<svg width="10" height="8" viewBox="0 0 10 8" fill="none" xmlns="http://www.w3.org/2000/svg">
<path fill-rule="evenodd" clip-rule="evenodd" d="M8.16551 6.49506C9.36063 5.07723 9.3383 2.77638 8.07506 1.39033L8.79501 0.753114C10.3726 2.48519 10.3961 5.36246 8.89507 7.1281L8.16551 6.49506ZM7.49973 5.91744L6.79725 5.30794C7.41941 4.54271 7.39915 3.32222 6.725 2.5852L7.41817 1.97172C8.39498 3.04195 8.41617 4.81712 7.49973 5.91744ZM2.64038 1.95424L5.63873 0L5.69837 8L2.56896 5.96571L2.64038 1.95424ZM0.0148846 5.16194C0.0148846 4.82347 0 3.36652 0 2.66306C0 2.05684 0.316817 1.85791 0.823518 1.85791C1.29414 1.85791 1.75764 1.903 1.75764 1.903L1.7872 6.05549C1.7872 6.05549 1.19295 6.12313 0.847085 6.12313C0.272886 6.12303 0.0148846 5.82984 0.0148846 5.16194Z" fill="white" fillOpacity="0.5"/>
</svg>
